# File created by Blade
# Date/Time:  Thu Jan 22 19:29:39 2015
# Frame Rate: 120.000 fps
#------------------------------------------------------
:FULLY-SPECIFIED
:DEGREES
980
root 1.618420 34.042677 0.721089 80.508649 -9.524716 -22.364696
RightUpLeg -6.742480 21.744419 -27.468687
RightLeg 151.597329 -0.000000 -0.000000
RightFoot 36.308969 6.977014 5.047580
RightToeBase -20.560766 -0.000000 0.000000
LeftUpLeg -83.409295 11.270202 11.545193
LeftLeg 24.816173 -0.000000 -0.000000
LeftFoot -20.851750 12.181484 -6.977768
LeftToeBase 7.614679 -0.000000 -0.000000
Spine -13.445883 -4.176203 0.467015
RightShoulder -18.959788 -33.656743 -13.584965
RightArm 8.026232 -57.810207 63.801599
RightForeArm 33.865309 -0.000000 38.767317
RightHand -9.085426 0.000000 16.021914
RightHandThumb1 -24.326973 -0.000000 -32.862282
LeftShoulder -32.363467 6.058530 35.220844
LeftArm 145.835243 -42.792011 -107.683238
LeftForeArm -11.601993 -0.000000 59.395564
LeftHand -15.591427 0.000000 15.048747
LeftHandThumb1 -26.253704 0.000000 33.147579
Head -21.877778 24.274527 -9.551732
981
root 1.625284 34.047778 0.732520 80.603578 -9.634842 -22.298481
RightUpLeg -6.717975 21.549468 -27.443690
RightLeg 151.621563 -0.000000 -0.000000
RightFoot 36.282578 6.818639 5.003491
RightToeBase -20.432803 -0.000000 0.000000
LeftUpLeg -83.420948 11.245948 11.407396
LeftLeg 24.670416 -0.000000 -0.000000
LeftFoot -20.782602 12.088441 -7.080110
LeftToeBase 7.539810 -0.000000 -0.000000
Spine -13.505674 -4.109433 0.349144
RightShoulder -19.003676 -33.658114 -13.485785
RightArm 7.930836 -57.934084 63.894150
RightForeArm 33.949545 -0.000000 38.762752
RightHand -9.096031 -0.000000 15.929780
RightHandThumb1 -24.326973 -0.000000 -32.862282
LeftShoulder -32.341060 6.039458 35.266436
LeftArm 145.834484 -42.811096 -107.899940
LeftForeArm -11.555450 0.000000 59.232911
LeftHand -15.629752 -0.000000 15.206220
LeftHandThumb1 -26.253704 0.000000 33.147579
Head -21.901847 24.158165 -9.513439
982
root 1.628869 34.053788 0.744346 80.704065 -9.738019 -22.267453
RightUpLeg -6.696082 21.431475 -27.405804
RightLeg 151.645648 -0.000000 -0.000000
RightFoot 36.273951 6.867717 4.903377
RightToeBase -20.360583 -0.000000 0.000000
LeftUpLeg -83.425032 11.260651 11.297649
LeftLeg 24.536140 -0.000000 -0.000000
LeftFoot -20.754295 11.956575 -7.257693
LeftToeBase 7.524839 -0.000000 -0.000000
Spine -13.558719 -4.069654 0.267855
RightShoulder -19.096755 -33.787365 -13.354212
RightArm 8.165332 -58.023303 63.713434
RightForeArm 34.033310 0.000000 38.718179
RightHand -9.091704 -0.000000 15.930656
RightHandThumb1 -24.326973 -0.000000 -32.862282
LeftShoulder -32.343601 5.975655 35.289946
LeftArm 145.787711 -42.864384 -108.062549
LeftForeArm -11.540431 -0.000000 59.089800
LeftHand -15.552027 -0.000000 15.284717
LeftHandThumb1 -26.253704 0.000000 33.147579
Head -21.958511 24.108910 -9.548235
983
root 1.632686 34.060712 0.755177 80.833049 -9.832336 -22.254442
RightUpLeg -6.673543 21.294023 -27.346638
RightLeg 151.660019 -0.000000 -0.000000
RightFoot 36.290399 6.859121 4.888791
RightToeBase -20.641372 -0.000000 0.000000
LeftUpLeg -83.484410 11.318514 11.136433
LeftLeg 24.441396 -0.000000 -0.000000
LeftFoot -20.701923 11.770751 -7.409721
LeftToeBase 7.387590 -0.000000 -0.000000
Spine -13.652781 -4.084279 0.216703
RightShoulder -19.103275 -33.786319 -13.307755
RightArm 8.152892 -58.153421 63.711964
RightForeArm 34.174402 -0.000000 38.701292
RightHand -9.131946 -0.000000 16.045241
RightHandThumb1 -24.326973 -0.000000 -32.862282
LeftShoulder -32.401487 6.009415 35.275124
LeftArm 145.827654 -42.826347 -108.298281
LeftForeArm -11.486802 -0.000000 58.971167
LeftHand -15.610040 -0.000000 15.344950
LeftHandThumb1 -26.253704 0.000000 33.147579
Head -21.939755 24.123174 -9.524731
984
root 1.635895 34.067671 0.765074 80.964089 -9.929640 -22.269272
RightUpLeg -6.641011 21.172240 -27.292345
RightLeg 151.663508 -0.000000 -0.000000
RightFoot 36.311009 6.943664 4.846977
RightToeBase -20.957603 -0.000000 0.000000
LeftUpLeg -83.541054 11.381374 11.093874
LeftLeg 24.402211 -0.000000 -0.000000
LeftFoot -20.683602 11.604015 -7.663836
LeftToeBase 7.214209 -0.000000 -0.000000
Spine -13.740886 -4.074723 0.166455
RightShoulder -19.129930 -33.799643 -13.249536
RightArm 8.138854 -58.275250 63.702420
RightForeArm 34.385433 -0.000000 38.688561
RightHand -9.196485 -0.000000 16.257718
RightHandThumb1 -24.326973 -0.000000 -32.862282
LeftShoulder -32.384681 5.998990 35.283699
LeftArm 145.827274 -42.832958 -108.541374
LeftForeArm -11.414331 -0.000000 58.954477
LeftHand -15.513601 -0.000000 15.360011
LeftHandThumb1 -26.253704 0.000000 33.147579
Head -21.926524 24.157856 -9.535525
985
root 1.640098 34.073856 0.774600 81.091410 -10.033035 -22.302259
RightUpLeg -6.571905 21.000937 -27.228838
RightLeg 151.663790 -0.000000 -0.000000
RightFoot 36.249010 6.915748 4.742582
RightToeBase -21.021334 -0.000000 0.000000
LeftUpLeg -83.592556 11.434170 11.105267
LeftLeg 24.400085 -0.000000 -0.000000
LeftFoot -20.705743 11.511305 -8.023788
LeftToeBase 7.114334 -0.000000 -0.000000
Spine -13.817429 -4.056767 0.121171
RightShoulder -19.181159 -33.803264 -13.196663
RightArm 8.083182 -58.402345 63.716044
RightForeArm 34.372613 -0.000000 38.722095
RightHand -9.240708 0.000000 16.383901
RightHandThumb1 -24.326973 -0.000000 -32.862282
LeftShoulder -32.365905 5.946983 35.276010
LeftArm 145.842740 -42.703811 -108.783310
LeftForeArm -11.292424 -0.000000 58.964775
LeftHand -15.524114 -0.000000 15.198878
LeftHandThumb1 -26.253704 0.000000 33.147579
Head -21.898703 24.190409 -9.558978
986
root 1.638523 34.083284 0.783102 81.243079 -10.121126 -22.363316
RightUpLeg -6.512903 20.876162 -27.130306
RightLeg 151.666809 -0.000000 -0.000000
RightFoot 36.248672 6.898060 4.772691
RightToeBase -20.855438 -0.000000 0.000000
LeftUpLeg -83.690925 11.557621 11.079537
LeftLeg 24.439478 -0.000000 -0.000000
LeftFoot -20.724452 11.307056 -8.331477
LeftToeBase 7.063749 -0.000000 -0.000000
Spine -13.923726 -4.086720 0.093954
RightShoulder -19.185106 -33.822468 -13.164016
RightArm 8.026212 -58.508344 63.733633
RightForeArm 34.440841 0.000000 38.804326
RightHand -9.314557 0.000000 16.422298
RightHandThumb1 -24.326973 -0.000000 -32.862282
LeftShoulder -32.391051 5.961186 35.240489
LeftArm 145.890094 -42.689730 -109.001891
LeftForeArm -11.330356 -0.000000 59.029072
LeftHand -15.587195 -0.000000 15.280098
LeftHandThumb1 -26.253704 0.000000 33.147579
Head -21.829324 24.279603 -9.512196
987
root 1.635946 34.092446 0.792912 81.419907 -10.219673 -22.440583
RightUpLeg -6.460440 20.723203 -27.046087
RightLeg 151.648996 -0.000000 -0.000000
RightFoot 36.273975 6.844778 4.853109
RightToeBase -20.887332 -0.000000 0.000000
LeftUpLeg -83.810136 11.705822 11.063672
LeftLeg 24.506925 -0.000000 -0.000000
LeftFoot -20.764435 11.072706 -8.659652
LeftToeBase 7.033810 -0.000000 -0.000000
Spine -14.068392 -4.178044 0.076391
RightShoulder -19.144629 -33.879208 -13.164271
RightArm 8.040153 -58.622323 63.705061
RightForeArm 34.539038 -0.000000 38.851082
RightHand -9.351985 -0.000000 16.324121
RightHandThumb1 -24.326973 -0.000000 -32.862282
LeftShoulder -32.439601 6.023264 35.196775
LeftArm 145.948053 -42.635400 -109.271654
LeftForeArm -11.310535 -0.000000 59.195701
LeftHand -15.564877 -0.000000 15.085904
LeftHandThumb1 -26.253704 0.000000 33.147579
Head -21.725242 24.488753 -9.417097
